<?xml version="1.0" encoding="UTF-8"?>
<!DOCTYPE svg PUBLIC "-//W3C//DTD SVG 1.1//EN" "http://www.w3.org/Graphics/SVG/1.1/DTD/svg11.dtd">
<svg width="291mm" height="134mm" viewBox="0 0 29100 13400" version="1.1" xmlns="http://www.w3.org/2000/svg" stroke-width="28.222" stroke-linejoin="round" xml:space="preserve">
 <path fill="rgb(255,255,255)" stroke="none" d="M 14566,13413 L 0,13413 0,0 29131,0 29131,13413 14566,13413 Z"/>
 <path fill="none" stroke="rgb(179,179,179)" stroke-linejoin="round" d="M 13126,11517 L 2214,11517 2214,1650 24037,1650 24037,11517 13126,11517 Z"/>
 <path fill="none" stroke="rgb(179,179,179)" stroke-linejoin="round" d="M 24037,11516 L 2214,11516"/>
 <path fill="none" stroke="rgb(179,179,179)" stroke-linejoin="round" d="M 24037,10419 L 2214,10419"/>
 <path fill="none" stroke="rgb(179,179,179)" stroke-linejoin="round" d="M 24037,9323 L 2214,9323"/>
 <path fill="none" stroke="rgb(179,179,179)" stroke-linejoin="round" d="M 24037,8226 L 2214,8226"/>
 <path fill="none" stroke="rgb(179,179,179)" stroke-linejoin="round" d="M 24037,7130 L 2214,7130"/>
 <path fill="none" stroke="rgb(179,179,179)" stroke-linejoin="round" d="M 24037,6034 L 2214,6034"/>
 <path fill="none" stroke="rgb(179,179,179)" stroke-linejoin="round" d="M 24037,4938 L 2214,4938"/>
 <path fill="none" stroke="rgb(179,179,179)" stroke-linejoin="round" d="M 24037,3841 L 2214,3841"/>
 <path fill="none" stroke="rgb(179,179,179)" stroke-linejoin="round" d="M 24037,2745 L 2214,2745"/>
 <path fill="none" stroke="rgb(179,179,179)" stroke-linejoin="round" d="M 24037,1649 L 2214,1649"/>
 <path fill="none" stroke="rgb(179,179,179)" stroke-linejoin="round" d="M 2214,11666 L 2214,11516"/>
 <path fill="none" stroke="rgb(179,179,179)" stroke-linejoin="round" d="M 2214,11666 L 2214,11516"/>
 <path fill="none" stroke="rgb(179,179,179)" stroke-linejoin="round" d="M 5851,11666 L 5851,11516"/>
 <path fill="none" stroke="rgb(179,179,179)" stroke-linejoin="round" d="M 5851,11666 L 5851,11516"/>
 <path fill="none" stroke="rgb(179,179,179)" stroke-linejoin="round" d="M 9488,11666 L 9488,11516"/>
 <path fill="none" stroke="rgb(179,179,179)" stroke-linejoin="round" d="M 9488,11666 L 9488,11516"/>
 <path fill="none" stroke="rgb(179,179,179)" stroke-linejoin="round" d="M 13126,11666 L 13126,11516"/>
 <path fill="none" stroke="rgb(179,179,179)" stroke-linejoin="round" d="M 13126,11666 L 13126,11516"/>
 <path fill="none" stroke="rgb(179,179,179)" stroke-linejoin="round" d="M 16762,11666 L 16762,11516"/>
 <path fill="none" stroke="rgb(179,179,179)" stroke-linejoin="round" d="M 16762,11666 L 16762,11516"/>
 <path fill="none" stroke="rgb(179,179,179)" stroke-linejoin="round" d="M 20399,11666 L 20399,11516"/>
 <path fill="none" stroke="rgb(179,179,179)" stroke-linejoin="round" d="M 20399,11666 L 20399,11516"/>
 <path fill="none" stroke="rgb(179,179,179)" stroke-linejoin="round" d="M 24037,11666 L 24037,11516"/>
 <path fill="none" stroke="rgb(179,179,179)" stroke-linejoin="round" d="M 24037,11666 L 24037,11516"/>
 <path fill="none" stroke="rgb(179,179,179)" stroke-linejoin="round" d="M 2214,11516 L 24037,11516"/>
 <path fill="none" stroke="rgb(179,179,179)" stroke-linejoin="round" d="M 2064,11516 L 2214,11516"/>
 <path fill="none" stroke="rgb(179,179,179)" stroke-linejoin="round" d="M 2064,11516 L 2214,11516"/>
 <path fill="none" stroke="rgb(179,179,179)" stroke-linejoin="round" d="M 2064,10419 L 2214,10419"/>
 <path fill="none" stroke="rgb(179,179,179)" stroke-linejoin="round" d="M 2064,10419 L 2214,10419"/>
 <path fill="none" stroke="rgb(179,179,179)" stroke-linejoin="round" d="M 2064,9323 L 2214,9323"/>
 <path fill="none" stroke="rgb(179,179,179)" stroke-linejoin="round" d="M 2064,9323 L 2214,9323"/>
 <path fill="none" stroke="rgb(179,179,179)" stroke-linejoin="round" d="M 2064,8226 L 2214,8226"/>
 <path fill="none" stroke="rgb(179,179,179)" stroke-linejoin="round" d="M 2064,8226 L 2214,8226"/>
 <path fill="none" stroke="rgb(179,179,179)" stroke-linejoin="round" d="M 2064,7130 L 2214,7130"/>
 <path fill="none" stroke="rgb(179,179,179)" stroke-linejoin="round" d="M 2064,7130 L 2214,7130"/>
 <path fill="none" stroke="rgb(179,179,179)" stroke-linejoin="round" d="M 2064,6034 L 2214,6034"/>
 <path fill="none" stroke="rgb(179,179,179)" stroke-linejoin="round" d="M 2064,6034 L 2214,6034"/>
 <path fill="none" stroke="rgb(179,179,179)" stroke-linejoin="round" d="M 2064,4938 L 2214,4938"/>
 <path fill="none" stroke="rgb(179,179,179)" stroke-linejoin="round" d="M 2064,4938 L 2214,4938"/>
 <path fill="none" stroke="rgb(179,179,179)" stroke-linejoin="round" d="M 2064,3841 L 2214,3841"/>
 <path fill="none" stroke="rgb(179,179,179)" stroke-linejoin="round" d="M 2064,3841 L 2214,3841"/>
 <path fill="none" stroke="rgb(179,179,179)" stroke-linejoin="round" d="M 2064,2745 L 2214,2745"/>
 <path fill="none" stroke="rgb(179,179,179)" stroke-linejoin="round" d="M 2064,2745 L 2214,2745"/>
 <path fill="none" stroke="rgb(179,179,179)" stroke-linejoin="round" d="M 2064,1649 L 2214,1649"/>
 <path fill="none" stroke="rgb(179,179,179)" stroke-linejoin="round" d="M 2064,1649 L 2214,1649"/>
 <path fill="none" stroke="rgb(179,179,179)" stroke-linejoin="round" d="M 2214,11516 L 2214,1649"/>
 <path fill="rgb(0,69,134)" stroke="none" d="M 20601,11516 L 21005,11516 21005,10402 20601,10402 20601,11516 Z"/>
 <path fill="rgb(0,69,134)" stroke="none" d="M 16964,11516 L 17368,11516 17368,5507 16964,5507 16964,11516 Z"/>
 <path fill="rgb(0,69,134)" stroke="none" d="M 13328,11516 L 13732,11516 13732,6724 13328,6724 13328,11516 Z"/>
 <path fill="rgb(0,69,134)" stroke="none" d="M 6053,11516 L 6457,11516 6457,7593 6053,7593 6053,11516 Z"/>
 <path fill="rgb(0,69,134)" stroke="none" d="M 2416,11516 L 2820,11516 2820,2606 2416,2606 2416,11516 Z"/>
 <path fill="rgb(255,66,14)" stroke="none" d="M 21005,11516 L 21410,11516 21410,6971 21005,6971 21005,11516 Z"/>
 <path fill="rgb(255,66,14)" stroke="none" d="M 17368,11516 L 17772,11516 17772,10535 17368,10535 17368,11516 Z"/>
 <path fill="rgb(255,66,14)" stroke="none" d="M 13732,11516 L 14136,11516 14136,9560 13732,9560 13732,11516 Z"/>
 <path fill="rgb(255,66,14)" stroke="none" d="M 10094,11516 L 10499,11516 10499,10448 10094,10448 10094,11516 Z"/>
 <path fill="rgb(255,66,14)" stroke="none" d="M 6457,11516 L 6861,11516 6861,10448 6457,10448 6457,11516 Z"/>
 <path fill="rgb(255,66,14)" stroke="none" d="M 2820,11516 L 3224,11516 3224,9698 2820,9698 2820,11516 Z"/>
 <path fill="rgb(87,157,28)" stroke="none" d="M 21410,11516 L 21814,11516 21814,10318 21410,10318 21410,11516 Z"/>
 <path fill="rgb(87,157,28)" stroke="none" d="M 14136,11516 L 14540,11516 14540,9798 14136,9798 14136,11516 Z"/>
 <path fill="rgb(87,157,28)" stroke="none" d="M 10499,11516 L 10903,11516 10903,7298 10499,7298 10499,11516 Z"/>
 <path fill="rgb(87,157,28)" stroke="none" d="M 6861,11516 L 7265,11516 7265,8704 6861,8704 6861,11516 Z"/>
 <path fill="rgb(255,149,14)" fill-opacity="0.502" stroke="rgb(255,255,255)" stroke-opacity="0.502" d="M 21814,11516 L 22218,11516 22218,10158 21814,10158 21814,11516 Z"/>
 <path fill="rgb(255,149,14)" fill-opacity="0.502" stroke="rgb(255,255,255)" stroke-opacity="0.502" d="M 18176,11516 L 18581,11516 18581,10051 18176,10051 18176,11516 Z"/>
 <path fill="rgb(255,149,14)" fill-opacity="0.502" stroke="rgb(255,255,255)" stroke-opacity="0.502" d="M 10903,11516 L 11307,11516 11307,9125 10903,9125 10903,11516 Z"/>
 <path fill="rgb(255,149,14)" fill-opacity="0.502" stroke="rgb(255,255,255)" stroke-opacity="0.502" d="M 7265,11516 L 7669,11516 7669,9125 7265,9125 7265,11516 Z"/>
 <path fill="rgb(255,149,14)" fill-opacity="0.502" stroke="rgb(255,255,255)" stroke-opacity="0.502" d="M 3628,11516 L 4032,11516 4032,10837 3628,10837 3628,11516 Z"/>
 <path fill="rgb(126,0,33)" fill-opacity="0.502" stroke="rgb(255,255,255)" stroke-opacity="0.502" d="M 18581,11516 L 18985,11516 18985,8097 18581,8097 18581,11516 Z"/>
 <path fill="rgb(126,0,33)" fill-opacity="0.502" stroke="rgb(255,255,255)" stroke-opacity="0.502" d="M 7670,11516 L 8074,11516 8074,7797 7670,7797 7670,11516 Z"/>
 <path fill="rgb(131,202,255)" fill-opacity="0.698" stroke="rgb(255,255,255)" stroke-opacity="0.698" d="M 15347,11516 L 15751,11516 15751,10167 15347,10167 15347,11516 Z"/>
 <path fill="rgb(131,202,255)" fill-opacity="0.698" stroke="rgb(255,255,255)" stroke-opacity="0.698" d="M 11711,11516 L 12115,11516 12115,7101 11711,7101 11711,11516 Z"/>
 <path fill="rgb(131,202,255)" fill-opacity="0.698" stroke="rgb(255,255,255)" stroke-opacity="0.698" d="M 4436,11516 L 4840,11516 4840,10575 4436,10575 4436,11516 Z"/>
 <path fill="rgb(49,64,4)" fill-opacity="0.502" stroke="rgb(255,255,255)" stroke-opacity="0.502" d="M 23026,11516 L 23430,11516 23430,9965 23026,9965 23026,11516 Z"/>
 <path fill="rgb(49,64,4)" fill-opacity="0.502" stroke="rgb(255,255,255)" stroke-opacity="0.502" d="M 15751,11516 L 16156,11516 16156,9292 15751,9292 15751,11516 Z"/>
 <path fill="rgb(174,207,0)" fill-opacity="0.502" stroke="rgb(255,255,255)" stroke-opacity="0.502" d="M 23430,11516 L 23834,11516 23834,10714 23430,10714 23430,11516 Z"/>
 <path fill="rgb(174,207,0)" fill-opacity="0.502" stroke="rgb(255,255,255)" stroke-opacity="0.502" d="M 5245,11516 L 5649,11516 5649,9913 5245,9913 5245,11516 Z"/>
 <text class="TextShape"><tspan class="TextParagraph" font-family="Liberation Sans, sans-serif" font-size="353px" font-weight="400"><tspan class="TextPosition" x="3727" y="12084"><tspan fill="rgb(0,0,0)" stroke="none">woe</tspan></tspan></tspan></text>
 <text class="TextShape"><tspan class="TextParagraph" font-family="Liberation Sans, sans-serif" font-size="353px" font-weight="400"><tspan class="TextPosition" x="7445" y="12084"><tspan fill="rgb(0,0,0)" stroke="none">joy</tspan></tspan></tspan></text>
 <text class="TextShape"><tspan class="TextParagraph" font-family="Liberation Sans, sans-serif" font-size="353px" font-weight="400"><tspan class="TextPosition" x="10844" y="12084"><tspan fill="rgb(0,0,0)" stroke="none">happy</tspan></tspan></tspan></text>
 <text class="TextShape"><tspan class="TextParagraph" font-family="Liberation Sans, sans-serif" font-size="353px" font-weight="400"><tspan class="TextPosition" x="14666" y="12084"><tspan fill="rgb(0,0,0)" stroke="none">sad</tspan></tspan></tspan></text>
 <text class="TextShape"><tspan class="TextParagraph" font-family="Liberation Sans, sans-serif" font-size="353px" font-weight="400"><tspan class="TextPosition" x="18211" y="12084"><tspan fill="rgb(0,0,0)" stroke="none">hope</tspan></tspan></tspan></text>
 <text class="TextShape"><tspan class="TextParagraph" font-family="Liberation Sans, sans-serif" font-size="353px" font-weight="400"><tspan class="TextPosition" x="21835" y="12084"><tspan fill="rgb(0,0,0)" stroke="none">tears</tspan></tspan></tspan></text>
 <text class="TextShape"><tspan class="TextParagraph" font-family="Liberation Sans, sans-serif" font-size="353px" font-weight="400"><tspan class="TextPosition" x="1779" y="11637"><tspan fill="rgb(0,0,0)" stroke="none">0</tspan></tspan></tspan></text>
 <text class="TextShape"><tspan class="TextParagraph" font-family="Liberation Sans, sans-serif" font-size="353px" font-weight="400"><tspan class="TextPosition" x="1779" y="10540"><tspan fill="rgb(0,0,0)" stroke="none">5</tspan></tspan></tspan></text>
 <text class="TextShape"><tspan class="TextParagraph" font-family="Liberation Sans, sans-serif" font-size="353px" font-weight="400"><tspan class="TextPosition" x="1594" y="9444"><tspan fill="rgb(0,0,0)" stroke="none">10</tspan></tspan></tspan></text>
 <text class="TextShape"><tspan class="TextParagraph" font-family="Liberation Sans, sans-serif" font-size="353px" font-weight="400"><tspan class="TextPosition" x="1594" y="8347"><tspan fill="rgb(0,0,0)" stroke="none">15</tspan></tspan></tspan></text>
 <text class="TextShape"><tspan class="TextParagraph" font-family="Liberation Sans, sans-serif" font-size="353px" font-weight="400"><tspan class="TextPosition" x="1594" y="7251"><tspan fill="rgb(0,0,0)" stroke="none">20</tspan></tspan></tspan></text>
 <text class="TextShape"><tspan class="TextParagraph" font-family="Liberation Sans, sans-serif" font-size="353px" font-weight="400"><tspan class="TextPosition" x="1594" y="6154"><tspan fill="rgb(0,0,0)" stroke="none">25</tspan></tspan></tspan></text>
 <text class="TextShape"><tspan class="TextParagraph" font-family="Liberation Sans, sans-serif" font-size="353px" font-weight="400"><tspan class="TextPosition" x="1594" y="5058"><tspan fill="rgb(0,0,0)" stroke="none">30</tspan></tspan></tspan></text>
 <text class="TextShape"><tspan class="TextParagraph" font-family="Liberation Sans, sans-serif" font-size="353px" font-weight="400"><tspan class="TextPosition" x="1594" y="3961"><tspan fill="rgb(0,0,0)" stroke="none">35</tspan></tspan></tspan></text>
 <text class="TextShape"><tspan class="TextParagraph" font-family="Liberation Sans, sans-serif" font-size="353px" font-weight="400"><tspan class="TextPosition" x="1594" y="2865"><tspan fill="rgb(0,0,0)" stroke="none">40</tspan></tspan></tspan></text>
 <text class="TextShape"><tspan class="TextParagraph" font-family="Liberation Sans, sans-serif" font-size="353px" font-weight="400"><tspan class="TextPosition" x="1594" y="1769"><tspan fill="rgb(0,0,0)" stroke="none">45</tspan></tspan></tspan></text>
 <text class="TextShape"><tspan class="TextParagraph" font-family="Liberation Sans, sans-serif" font-size="459px" font-weight="400"><tspan class="TextPosition" x="9631" y="939"><tspan fill="rgb(0,0,0)" stroke="none">Significance of emotional vocabulary by character</tspan></tspan></tspan></text>
 <path fill="rgb(0,69,134)" stroke="none" d="M 24841,5069 L 24735,5069 24735,4858 24946,4858 24946,5069 24841,5069 Z"/>
 <path fill="rgb(255,66,14)" stroke="none" d="M 24841,5567 L 24735,5567 24735,5356 24946,5356 24946,5567 24841,5567 Z"/>
 <path fill="rgb(87,157,28)" stroke="none" d="M 24841,6065 L 24735,6065 24735,5854 24946,5854 24946,6065 24841,6065 Z"/>
 <path fill="rgb(255,149,14)" fill-opacity="0.502" stroke="rgb(255,255,255)" stroke-opacity="0.502" d="M 24841,6563 L 24735,6563 24735,6352 24946,6352 24946,6563 24841,6563 Z"/>
 <path fill="rgb(126,0,33)" fill-opacity="0.502" stroke="rgb(255,255,255)" stroke-opacity="0.502" d="M 24841,7060 L 24735,7060 24735,6849 24946,6849 24946,7060 24841,7060 Z"/>
 <path fill="rgb(131,202,255)" fill-opacity="0.698" stroke="rgb(255,255,255)" stroke-opacity="0.698" d="M 24841,7558 L 24735,7558 24735,7347 24946,7347 24946,7558 24841,7558 Z"/>
 <path fill="rgb(49,64,4)" fill-opacity="0.502" stroke="rgb(255,255,255)" stroke-opacity="0.502" d="M 24841,8056 L 24735,8056 24735,7845 24946,7845 24946,8056 24841,8056 Z"/>
 <path fill="rgb(174,207,0)" fill-opacity="0.502" stroke="rgb(255,255,255)" stroke-opacity="0.502" d="M 24841,8554 L 24735,8554 24735,8343 24946,8343 24946,8554 24841,8554 Z"/>
 <text class="TextShape"><tspan class="TextParagraph" font-family="Liberation Sans, sans-serif" font-size="353px" font-weight="400"><tspan class="TextPosition" x="25046" y="5083"><tspan fill="rgb(0,0,0)" stroke="none">QUEEN</tspan></tspan></tspan></text>
 <text class="TextShape"><tspan class="TextParagraph" font-family="Liberation Sans, sans-serif" font-size="353px" font-weight="400"><tspan class="TextPosition" x="25046" y="5581"><tspan fill="rgb(0,0,0)" stroke="none">KING RICHARD II</tspan></tspan></tspan></text>
 <text class="TextShape"><tspan class="TextParagraph" font-family="Liberation Sans, sans-serif" font-size="353px" font-weight="400"><tspan class="TextPosition" x="25046" y="6079"><tspan fill="rgb(0,0,0)" stroke="none">DUCHESS OF YORK</tspan></tspan></tspan></text>
 <text class="TextShape"><tspan class="TextParagraph" font-family="Liberation Sans, sans-serif" font-size="353px" font-weight="400"><tspan class="TextPosition" x="25046" y="6577"><tspan fill="rgb(0,0,0)" stroke="none">HENRY BOLINGBROKE</tspan></tspan></tspan></text>
 <text class="TextShape"><tspan class="TextParagraph" font-family="Liberation Sans, sans-serif" font-size="353px" font-weight="400"><tspan class="TextPosition" x="25046" y="7074"><tspan fill="rgb(0,0,0)" stroke="none">NORTHUMBERLAND</tspan></tspan></tspan></text>
 <text class="TextShape"><tspan class="TextParagraph" font-family="Liberation Sans, sans-serif" font-size="353px" font-weight="400"><tspan class="TextPosition" x="25046" y="7572"><tspan fill="rgb(0,0,0)" stroke="none">JOHN OF GAUNT</tspan></tspan></tspan></text>
 <text class="TextShape"><tspan class="TextParagraph" font-family="Liberation Sans, sans-serif" font-size="353px" font-weight="400"><tspan class="TextPosition" x="25046" y="8070"><tspan fill="rgb(0,0,0)" stroke="none">BUSHY</tspan></tspan></tspan></text>
 <text class="TextShape"><tspan class="TextParagraph" font-family="Liberation Sans, sans-serif" font-size="353px" font-weight="400"><tspan class="TextPosition" x="25046" y="8568"><tspan fill="rgb(0,0,0)" stroke="none">DUKE OF YORK</tspan></tspan></tspan></text>
 <text class="TextShape"><tspan class="TextParagraph" font-family="Liberation Sans, sans-serif" font-size="318px" font-weight="400"><tspan class="TextPosition" x="12444" y="12819"><tspan fill="rgb(0,0,0)" stroke="none">Word</tspan></tspan></tspan></text>
 <text class="TextShape" transform="translate(837,7694) rotate(-90) translate(-837,-7694)"><tspan class="TextParagraph" font-family="Liberation Sans, sans-serif" font-size="318px" font-weight="400"><tspan class="TextPosition" x="837" y="7694"><tspan fill="rgb(0,0,0)" stroke="none">Significance</tspan></tspan></tspan></text>
</svg>