<?xml version="1.0" encoding="UTF-8"?>
<!DOCTYPE svg PUBLIC "-//W3C//DTD SVG 1.1//EN" "http://www.w3.org/Graphics/SVG/1.1/DTD/svg11.dtd">
<svg width="272mm" height="164mm" viewBox="0 0 27200 16400" version="1.1" xmlns="http://www.w3.org/2000/svg" stroke-width="28.222" stroke-linejoin="round" xml:space="preserve">
 <path fill="rgb(255,255,255)" stroke="none" d="M 13588,16389 L 0,16389 0,0 27175,0 27175,16389 13588,16389 Z"/>
 <path fill="none" stroke="rgb(179,179,179)" stroke-linejoin="round" d="M 12068,14434 L 2175,14434 2175,1768 21961,1768 21961,14434 12068,14434 Z"/>
 <path fill="none" stroke="rgb(179,179,179)" stroke-linejoin="round" d="M 21961,14433 L 2175,14433"/>
 <path fill="none" stroke="rgb(179,179,179)" stroke-linejoin="round" d="M 21961,12849 L 2175,12849"/>
 <path fill="none" stroke="rgb(179,179,179)" stroke-linejoin="round" d="M 21961,11266 L 2175,11266"/>
 <path fill="none" stroke="rgb(179,179,179)" stroke-linejoin="round" d="M 21961,9682 L 2175,9682"/>
 <path fill="none" stroke="rgb(179,179,179)" stroke-linejoin="round" d="M 21961,8100 L 2175,8100"/>
 <path fill="none" stroke="rgb(179,179,179)" stroke-linejoin="round" d="M 21961,6517 L 2175,6517"/>
 <path fill="none" stroke="rgb(179,179,179)" stroke-linejoin="round" d="M 21961,4933 L 2175,4933"/>
 <path fill="none" stroke="rgb(179,179,179)" stroke-linejoin="round" d="M 21961,3350 L 2175,3350"/>
 <path fill="none" stroke="rgb(179,179,179)" stroke-linejoin="round" d="M 21961,1767 L 2175,1767"/>
 <path fill="none" stroke="rgb(179,179,179)" stroke-linejoin="round" d="M 2175,14583 L 2175,14433"/>
 <path fill="none" stroke="rgb(179,179,179)" stroke-linejoin="round" d="M 2175,14583 L 2175,14433"/>
 <path fill="none" stroke="rgb(179,179,179)" stroke-linejoin="round" d="M 6132,14583 L 6132,14433"/>
 <path fill="none" stroke="rgb(179,179,179)" stroke-linejoin="round" d="M 6132,14583 L 6132,14433"/>
 <path fill="none" stroke="rgb(179,179,179)" stroke-linejoin="round" d="M 10089,14583 L 10089,14433"/>
 <path fill="none" stroke="rgb(179,179,179)" stroke-linejoin="round" d="M 10089,14583 L 10089,14433"/>
 <path fill="none" stroke="rgb(179,179,179)" stroke-linejoin="round" d="M 14046,14583 L 14046,14433"/>
 <path fill="none" stroke="rgb(179,179,179)" stroke-linejoin="round" d="M 14046,14583 L 14046,14433"/>
 <path fill="none" stroke="rgb(179,179,179)" stroke-linejoin="round" d="M 18003,14583 L 18003,14433"/>
 <path fill="none" stroke="rgb(179,179,179)" stroke-linejoin="round" d="M 18003,14583 L 18003,14433"/>
 <path fill="none" stroke="rgb(179,179,179)" stroke-linejoin="round" d="M 21961,14583 L 21961,14433"/>
 <path fill="none" stroke="rgb(179,179,179)" stroke-linejoin="round" d="M 21961,14583 L 21961,14433"/>
 <path fill="none" stroke="rgb(179,179,179)" stroke-linejoin="round" d="M 2175,14433 L 21961,14433"/>
 <path fill="none" stroke="rgb(179,179,179)" stroke-linejoin="round" d="M 2025,14433 L 2175,14433"/>
 <path fill="none" stroke="rgb(179,179,179)" stroke-linejoin="round" d="M 2025,14433 L 2175,14433"/>
 <path fill="none" stroke="rgb(179,179,179)" stroke-linejoin="round" d="M 2025,12849 L 2175,12849"/>
 <path fill="none" stroke="rgb(179,179,179)" stroke-linejoin="round" d="M 2025,12849 L 2175,12849"/>
 <path fill="none" stroke="rgb(179,179,179)" stroke-linejoin="round" d="M 2025,11266 L 2175,11266"/>
 <path fill="none" stroke="rgb(179,179,179)" stroke-linejoin="round" d="M 2025,11266 L 2175,11266"/>
 <path fill="none" stroke="rgb(179,179,179)" stroke-linejoin="round" d="M 2025,9682 L 2175,9682"/>
 <path fill="none" stroke="rgb(179,179,179)" stroke-linejoin="round" d="M 2025,9682 L 2175,9682"/>
 <path fill="none" stroke="rgb(179,179,179)" stroke-linejoin="round" d="M 2025,8100 L 2175,8100"/>
 <path fill="none" stroke="rgb(179,179,179)" stroke-linejoin="round" d="M 2025,8100 L 2175,8100"/>
 <path fill="none" stroke="rgb(179,179,179)" stroke-linejoin="round" d="M 2025,6517 L 2175,6517"/>
 <path fill="none" stroke="rgb(179,179,179)" stroke-linejoin="round" d="M 2025,6517 L 2175,6517"/>
 <path fill="none" stroke="rgb(179,179,179)" stroke-linejoin="round" d="M 2025,4933 L 2175,4933"/>
 <path fill="none" stroke="rgb(179,179,179)" stroke-linejoin="round" d="M 2025,4933 L 2175,4933"/>
 <path fill="none" stroke="rgb(179,179,179)" stroke-linejoin="round" d="M 2025,3350 L 2175,3350"/>
 <path fill="none" stroke="rgb(179,179,179)" stroke-linejoin="round" d="M 2025,3350 L 2175,3350"/>
 <path fill="none" stroke="rgb(179,179,179)" stroke-linejoin="round" d="M 2025,1767 L 2175,1767"/>
 <path fill="none" stroke="rgb(179,179,179)" stroke-linejoin="round" d="M 2025,1767 L 2175,1767"/>
 <path fill="none" stroke="rgb(179,179,179)" stroke-linejoin="round" d="M 2175,14433 L 2175,1767"/>
 <path fill="rgb(0,0,102)" stroke="none" d="M 18201,14433 L 18597,14433 18597,8482 18201,8482 18201,14433 Z"/>
 <path fill="rgb(0,0,102)" stroke="none" d="M 14244,14433 L 14639,14433 14639,6063 14244,6063 14244,14433 Z"/>
 <path fill="rgb(0,0,102)" stroke="none" d="M 10287,14433 L 10683,14433 10683,5164 10287,5164 10287,14433 Z"/>
 <path fill="rgb(0,0,102)" stroke="none" d="M 6330,14433 L 6726,14433 6726,3382 6330,3382 6330,14433 Z"/>
 <path fill="rgb(0,0,102)" stroke="none" d="M 2372,14433 L 2768,14433 2768,4495 2372,4495 2372,14433 Z"/>
 <path fill="rgb(204,255,0)" stroke="none" d="M 6726,14433 L 7121,14433 7121,11260 6726,11260 6726,14433 Z"/>
 <path fill="rgb(255,204,0)" stroke="none" d="M 18992,14433 L 19388,14433 19388,12532 18992,12532 18992,14433 Z"/>
 <path fill="rgb(255,153,153)" stroke="none" d="M 7517,14433 L 7913,14433 7913,12486 7517,12486 7517,14433 Z"/>
 <path fill="rgb(255,102,204)" stroke="none" d="M 19784,14433 L 20180,14433 20180,12404 19784,12404 19784,14433 Z"/>
 <path fill="rgb(255,153,255)" stroke="none" d="M 20180,14433 L 20575,14433 20575,9703 20180,9703 20180,14433 Z"/>
 <path fill="rgb(255,153,255)" stroke="none" d="M 16222,14433 L 16618,14433 16618,11771 16222,11771 16222,14433 Z"/>
 <path fill="rgb(255,153,255)" stroke="none" d="M 12266,14433 L 12662,14433 12662,12468 12266,12468 12266,14433 Z"/>
 <path fill="rgb(255,153,255)" stroke="none" d="M 8308,14433 L 8704,14433 8704,13027 8308,13027 8308,14433 Z"/>
 <path fill="rgb(255,153,255)" stroke="none" d="M 4351,14433 L 4747,14433 4747,11905 4351,11905 4351,14433 Z"/>
 <path fill="rgb(204,102,255)" stroke="none" d="M 8704,14433 L 9100,14433 9100,11134 8704,11134 8704,14433 Z"/>
 <path fill="rgb(153,51,255)" stroke="none" d="M 20971,14433 L 21367,14433 21367,9965 20971,9965 20971,14433 Z"/>
 <path fill="rgb(153,51,255)" stroke="none" d="M 17014,14433 L 17409,14433 17409,9720 17014,9720 17014,14433 Z"/>
 <path fill="rgb(153,51,255)" stroke="none" d="M 13057,14433 L 13453,14433 13453,12113 13057,12113 13057,14433 Z"/>
 <path fill="rgb(153,51,255)" stroke="none" d="M 5143,14433 L 5538,14433 5538,12940 5143,12940 5143,14433 Z"/>
 <path fill="rgb(255,128,128)" stroke="none" d="M 21367,14433 L 21763,14433 21763,12554 21367,12554 21367,14433 Z"/>
 <text class="TextShape"><tspan class="TextParagraph" font-family="Liberation Sans" font-size="353px" font-weight="400"><tspan class="TextPosition" x="3637" y="15001"><tspan fill="rgb(0,0,0)" stroke="none">defend</tspan></tspan></tspan></text>
 <text class="TextShape"><tspan class="TextParagraph" font-family="Liberation Sans" font-size="353px" font-weight="400"><tspan class="TextPosition" x="7423" y="15001"><tspan fill="rgb(0,0,0)" stroke="none">highness</tspan></tspan></tspan></text>
 <text class="TextShape"><tspan class="TextParagraph" font-family="Liberation Sans" font-size="353px" font-weight="400"><tspan class="TextPosition" x="11711" y="15001"><tspan fill="rgb(0,0,0)" stroke="none">loyal</tspan></tspan></tspan></text>
 <text class="TextShape"><tspan class="TextParagraph" font-family="Liberation Sans" font-size="353px" font-weight="400"><tspan class="TextPosition" x="15284" y="15001"><tspan fill="rgb(0,0,0)" stroke="none">sovereign</tspan></tspan></tspan></text>
 <text class="TextShape"><tspan class="TextParagraph" font-family="Liberation Sans" font-size="353px" font-weight="400"><tspan class="TextPosition" x="19546" y="15001"><tspan fill="rgb(0,0,0)" stroke="none">traitor</tspan></tspan></tspan></text>
 <text class="TextShape"><tspan class="TextParagraph" font-family="Liberation Sans" font-size="353px" font-weight="400"><tspan class="TextPosition" x="1740" y="14554"><tspan fill="rgb(0,0,0)" stroke="none">0</tspan></tspan></tspan></text>
 <text class="TextShape"><tspan class="TextParagraph" font-family="Liberation Sans" font-size="353px" font-weight="400"><tspan class="TextPosition" x="1740" y="12970"><tspan fill="rgb(0,0,0)" stroke="none">5</tspan></tspan></tspan></text>
 <text class="TextShape"><tspan class="TextParagraph" font-family="Liberation Sans" font-size="353px" font-weight="400"><tspan class="TextPosition" x="1555" y="11387"><tspan fill="rgb(0,0,0)" stroke="none">10</tspan></tspan></tspan></text>
 <text class="TextShape"><tspan class="TextParagraph" font-family="Liberation Sans" font-size="353px" font-weight="400"><tspan class="TextPosition" x="1555" y="9803"><tspan fill="rgb(0,0,0)" stroke="none">15</tspan></tspan></tspan></text>
 <text class="TextShape"><tspan class="TextParagraph" font-family="Liberation Sans" font-size="353px" font-weight="400"><tspan class="TextPosition" x="1555" y="8220"><tspan fill="rgb(0,0,0)" stroke="none">20</tspan></tspan></tspan></text>
 <text class="TextShape"><tspan class="TextParagraph" font-family="Liberation Sans" font-size="353px" font-weight="400"><tspan class="TextPosition" x="1555" y="6637"><tspan fill="rgb(0,0,0)" stroke="none">25</tspan></tspan></tspan></text>
 <text class="TextShape"><tspan class="TextParagraph" font-family="Liberation Sans" font-size="353px" font-weight="400"><tspan class="TextPosition" x="1555" y="5053"><tspan fill="rgb(0,0,0)" stroke="none">30</tspan></tspan></tspan></text>
 <text class="TextShape"><tspan class="TextParagraph" font-family="Liberation Sans" font-size="353px" font-weight="400"><tspan class="TextPosition" x="1555" y="3470"><tspan fill="rgb(0,0,0)" stroke="none">35</tspan></tspan></tspan></text>
 <text class="TextShape"><tspan class="TextParagraph" font-family="Liberation Sans" font-size="353px" font-weight="400"><tspan class="TextPosition" x="1555" y="1887"><tspan fill="rgb(0,0,0)" stroke="none">40</tspan></tspan></tspan></text>
 <text class="TextShape"><tspan class="TextParagraph" font-family="Liberation Sans" font-size="459px" font-weight="400"><tspan class="TextPosition" x="8693" y="998"><tspan fill="rgb(0,0,0)" stroke="none">Significance of loyalty-related words by character</tspan></tspan></tspan></text>
 <path fill="rgb(0,0,102)" stroke="none" d="M 22726,6308 L 22620,6308 22620,6097 22831,6097 22831,6308 22726,6308 Z"/>
 <path fill="rgb(204,255,0)" stroke="none" d="M 22726,6806 L 22620,6806 22620,6595 22831,6595 22831,6806 22726,6806 Z"/>
 <path fill="rgb(255,204,0)" stroke="none" d="M 22726,7304 L 22620,7304 22620,7093 22831,7093 22831,7304 22726,7304 Z"/>
 <path fill="rgb(255,153,153)" stroke="none" d="M 22726,7802 L 22620,7802 22620,7591 22831,7591 22831,7802 22726,7802 Z"/>
 <path fill="rgb(255,102,204)" stroke="none" d="M 22726,8299 L 22620,8299 22620,8089 22831,8089 22831,8299 22726,8299 Z"/>
 <path fill="rgb(255,153,255)" stroke="none" d="M 22726,8797 L 22620,8797 22620,8586 22831,8586 22831,8797 22726,8797 Z"/>
 <path fill="rgb(204,102,255)" stroke="none" d="M 22726,9295 L 22620,9295 22620,9084 22831,9084 22831,9295 22726,9295 Z"/>
 <path fill="rgb(153,51,255)" stroke="none" d="M 22726,9793 L 22620,9793 22620,9582 22831,9582 22831,9793 22726,9793 Z"/>
 <path fill="rgb(255,128,128)" stroke="none" d="M 22726,10291 L 22620,10291 22620,10080 22831,10080 22831,10291 22726,10291 Z"/>
 <text class="TextShape"><tspan class="TextParagraph" font-family="Liberation Sans" font-size="353px" font-weight="400"><tspan class="TextPosition" x="22931" y="6322"><tspan fill="rgb(0,0,0)" stroke="none">THOMAS MOWBRAY</tspan></tspan></tspan></text>
 <text class="TextShape"><tspan class="TextParagraph" font-family="Liberation Sans" font-size="353px" font-weight="400"><tspan class="TextPosition" x="22931" y="6820"><tspan fill="rgb(0,0,0)" stroke="none">SIR STEPHEN SCROOP</tspan></tspan></tspan></text>
 <text class="TextShape"><tspan class="TextParagraph" font-family="Liberation Sans" font-size="353px" font-weight="400"><tspan class="TextPosition" x="22931" y="7318"><tspan fill="rgb(0,0,0)" stroke="none">KING RICHARD II</tspan></tspan></tspan></text>
 <text class="TextShape"><tspan class="TextParagraph" font-family="Liberation Sans" font-size="353px" font-weight="400"><tspan class="TextPosition" x="22931" y="7816"><tspan fill="rgb(0,0,0)" stroke="none">JOHN OF GAUNT</tspan></tspan></tspan></text>
 <text class="TextShape"><tspan class="TextParagraph" font-family="Liberation Sans" font-size="353px" font-weight="400"><tspan class="TextPosition" x="22931" y="8313"><tspan fill="rgb(0,0,0)" stroke="none">HENRY PERCY</tspan></tspan></tspan></text>
 <text class="TextShape"><tspan class="TextParagraph" font-family="Liberation Sans" font-size="353px" font-weight="400"><tspan class="TextPosition" x="22931" y="8811"><tspan fill="rgb(0,0,0)" stroke="none">HENRY BOLINGBROKE</tspan></tspan></tspan></text>
 <text class="TextShape"><tspan class="TextParagraph" font-family="Liberation Sans" font-size="353px" font-weight="400"><tspan class="TextPosition" x="22931" y="9309"><tspan fill="rgb(0,0,0)" stroke="none">GREEN</tspan></tspan></tspan></text>
 <text class="TextShape"><tspan class="TextParagraph" font-family="Liberation Sans" font-size="353px" font-weight="400"><tspan class="TextPosition" x="22931" y="9807"><tspan fill="rgb(0,0,0)" stroke="none">DUKE OF YORK</tspan></tspan></tspan></text>
 <text class="TextShape"><tspan class="TextParagraph" font-family="Liberation Sans" font-size="353px" font-weight="400"><tspan class="TextPosition" x="22931" y="10305"><tspan fill="rgb(0,0,0)" stroke="none">BISHOP OF CARLISLE</tspan></tspan></tspan></text>
 <text class="TextShape"><tspan class="TextParagraph" font-family="Liberation Sans" font-size="318px" font-weight="400"><tspan class="TextPosition" x="11387" y="15795"><tspan fill="rgb(0,0,0)" stroke="none">Word</tspan></tspan></tspan></text>
 <text class="TextShape" transform="translate(837,9211) rotate(-90) translate(-837,-9211)"><tspan class="TextParagraph" font-family="Liberation Sans" font-size="318px" font-weight="400"><tspan class="TextPosition" x="837" y="9211"><tspan fill="rgb(0,0,0)" stroke="none">Significance</tspan></tspan></tspan></text>
</svg>