<?xml version="1.0" encoding="UTF-8"?>
<!DOCTYPE svg PUBLIC "-//W3C//DTD SVG 1.1//EN" "http://www.w3.org/Graphics/SVG/1.1/DTD/svg11.dtd">
<svg width="226mm" height="113mm" viewBox="0 0 22600 11300" version="1.1" xmlns="http://www.w3.org/2000/svg" stroke-width="28.222" stroke-linejoin="round" xml:space="preserve">
 <path fill="rgb(255,255,255)" stroke="none" d="M 11308,11323 L 0,11323 0,0 22615,0 22615,11323 11308,11323 Z"/>
 <path fill="none" stroke="rgb(179,179,179)" stroke-linejoin="round" d="M 9868,9469 L 2084,9469 2084,1566 17651,1566 17651,9469 9868,9469 Z"/>
 <path fill="none" stroke="rgb(179,179,179)" stroke-linejoin="round" d="M 17651,9468 L 2084,9468"/>
 <path fill="none" stroke="rgb(179,179,179)" stroke-linejoin="round" d="M 17651,8150 L 2084,8150"/>
 <path fill="none" stroke="rgb(179,179,179)" stroke-linejoin="round" d="M 17651,6833 L 2084,6833"/>
 <path fill="none" stroke="rgb(179,179,179)" stroke-linejoin="round" d="M 17651,5517 L 2084,5517"/>
 <path fill="none" stroke="rgb(179,179,179)" stroke-linejoin="round" d="M 17651,4199 L 2084,4199"/>
 <path fill="none" stroke="rgb(179,179,179)" stroke-linejoin="round" d="M 17651,2882 L 2084,2882"/>
 <path fill="none" stroke="rgb(179,179,179)" stroke-linejoin="round" d="M 17651,1565 L 2084,1565"/>
 <path fill="none" stroke="rgb(179,179,179)" stroke-linejoin="round" d="M 2084,9618 L 2084,9468"/>
 <path fill="none" stroke="rgb(179,179,179)" stroke-linejoin="round" d="M 2084,9618 L 2084,9468"/>
 <path fill="none" stroke="rgb(179,179,179)" stroke-linejoin="round" d="M 9868,9618 L 9868,9468"/>
 <path fill="none" stroke="rgb(179,179,179)" stroke-linejoin="round" d="M 9868,9618 L 9868,9468"/>
 <path fill="none" stroke="rgb(179,179,179)" stroke-linejoin="round" d="M 17651,9618 L 17651,9468"/>
 <path fill="none" stroke="rgb(179,179,179)" stroke-linejoin="round" d="M 17651,9618 L 17651,9468"/>
 <path fill="none" stroke="rgb(179,179,179)" stroke-linejoin="round" d="M 2084,9468 L 17651,9468"/>
 <path fill="none" stroke="rgb(179,179,179)" stroke-linejoin="round" d="M 1934,9468 L 2084,9468"/>
 <path fill="none" stroke="rgb(179,179,179)" stroke-linejoin="round" d="M 1934,9468 L 2084,9468"/>
 <path fill="none" stroke="rgb(179,179,179)" stroke-linejoin="round" d="M 1934,8150 L 2084,8150"/>
 <path fill="none" stroke="rgb(179,179,179)" stroke-linejoin="round" d="M 1934,8150 L 2084,8150"/>
 <path fill="none" stroke="rgb(179,179,179)" stroke-linejoin="round" d="M 1934,6833 L 2084,6833"/>
 <path fill="none" stroke="rgb(179,179,179)" stroke-linejoin="round" d="M 1934,6833 L 2084,6833"/>
 <path fill="none" stroke="rgb(179,179,179)" stroke-linejoin="round" d="M 1934,5517 L 2084,5517"/>
 <path fill="none" stroke="rgb(179,179,179)" stroke-linejoin="round" d="M 1934,5517 L 2084,5517"/>
 <path fill="none" stroke="rgb(179,179,179)" stroke-linejoin="round" d="M 1934,4199 L 2084,4199"/>
 <path fill="none" stroke="rgb(179,179,179)" stroke-linejoin="round" d="M 1934,4199 L 2084,4199"/>
 <path fill="none" stroke="rgb(179,179,179)" stroke-linejoin="round" d="M 1934,2882 L 2084,2882"/>
 <path fill="none" stroke="rgb(179,179,179)" stroke-linejoin="round" d="M 1934,2882 L 2084,2882"/>
 <path fill="none" stroke="rgb(179,179,179)" stroke-linejoin="round" d="M 1934,1565 L 2084,1565"/>
 <path fill="none" stroke="rgb(179,179,179)" stroke-linejoin="round" d="M 1934,1565 L 2084,1565"/>
 <path fill="none" stroke="rgb(179,179,179)" stroke-linejoin="round" d="M 2084,9468 L 2084,1565"/>
 <path fill="rgb(0,69,134)" stroke="none" d="M 10424,9468 L 11535,9468 11535,3760 10424,3760 10424,9468 Z"/>
 <path fill="rgb(0,69,134)" stroke="none" d="M 2640,9468 L 3752,9468 3752,2930 2640,2930 2640,9468 Z"/>
 <path fill="rgb(255,204,0)" stroke="none" d="M 11535,9468 L 12647,9468 12647,5152 11535,5152 11535,9468 Z"/>
 <path fill="rgb(255,153,153)" stroke="none" d="M 12647,9468 L 13759,9468 13759,6737 12647,6737 12647,9468 Z"/>
 <path fill="rgb(204,102,255)" stroke="none" d="M 5976,9468 L 7088,9468 7088,7538 5976,7538 5976,9468 Z"/>
 <path fill="rgb(255,102,204)" stroke="none" d="M 14871,9468 L 15983,9468 15983,7553 14871,7553 14871,9468 Z"/>
 <path fill="rgb(131,202,255)" stroke="none" d="M 15983,9468 L 17095,9468 17095,8129 15983,8129 15983,9468 Z"/>
 <text class="TextShape"><tspan class="TextParagraph" font-family="Liberation Sans, sans-serif" font-size="353px" font-weight="400"><tspan class="TextPosition" x="5499" y="10036"><tspan fill="rgb(0,0,0)" stroke="none">march</tspan></tspan></tspan></text>
 <text class="TextShape"><tspan class="TextParagraph" font-family="Liberation Sans, sans-serif" font-size="353px" font-weight="400"><tspan class="TextPosition" x="13336" y="10036"><tspan fill="rgb(0,0,0)" stroke="none">stand</tspan></tspan></tspan></text>
 <text class="TextShape"><tspan class="TextParagraph" font-family="Liberation Sans, sans-serif" font-size="353px" font-weight="400"><tspan class="TextPosition" x="1649" y="9589"><tspan fill="rgb(0,0,0)" stroke="none">0</tspan></tspan></tspan></text>
 <text class="TextShape"><tspan class="TextParagraph" font-family="Liberation Sans, sans-serif" font-size="353px" font-weight="400"><tspan class="TextPosition" x="1649" y="8271"><tspan fill="rgb(0,0,0)" stroke="none">5</tspan></tspan></tspan></text>
 <text class="TextShape"><tspan class="TextParagraph" font-family="Liberation Sans, sans-serif" font-size="353px" font-weight="400"><tspan class="TextPosition" x="1464" y="6954"><tspan fill="rgb(0,0,0)" stroke="none">10</tspan></tspan></tspan></text>
 <text class="TextShape"><tspan class="TextParagraph" font-family="Liberation Sans, sans-serif" font-size="353px" font-weight="400"><tspan class="TextPosition" x="1464" y="5637"><tspan fill="rgb(0,0,0)" stroke="none">15</tspan></tspan></tspan></text>
 <text class="TextShape"><tspan class="TextParagraph" font-family="Liberation Sans, sans-serif" font-size="353px" font-weight="400"><tspan class="TextPosition" x="1464" y="4319"><tspan fill="rgb(0,0,0)" stroke="none">20</tspan></tspan></tspan></text>
 <text class="TextShape"><tspan class="TextParagraph" font-family="Liberation Sans, sans-serif" font-size="353px" font-weight="400"><tspan class="TextPosition" x="1464" y="3002"><tspan fill="rgb(0,0,0)" stroke="none">25</tspan></tspan></tspan></text>
 <text class="TextShape"><tspan class="TextParagraph" font-family="Liberation Sans, sans-serif" font-size="353px" font-weight="400"><tspan class="TextPosition" x="1464" y="1685"><tspan fill="rgb(0,0,0)" stroke="none">30</tspan></tspan></tspan></text>
 <text class="TextShape"><tspan class="TextParagraph" font-family="Liberation Sans, sans-serif" font-size="459px" font-weight="400"><tspan class="TextPosition" x="6506" y="897"><tspan fill="rgb(0,0,0)" stroke="none">Significance of &quot;stand&quot; and &quot;march&quot; by character</tspan></tspan></tspan></text>
 <path fill="rgb(0,69,134)" stroke="none" d="M 18325,4522 L 18219,4522 18219,4311 18430,4311 18430,4522 18325,4522 Z"/>
 <path fill="rgb(255,204,0)" stroke="none" d="M 18325,5020 L 18219,5020 18219,4809 18430,4809 18430,5020 18325,5020 Z"/>
 <path fill="rgb(255,153,153)" stroke="none" d="M 18325,5518 L 18219,5518 18219,5307 18430,5307 18430,5518 18325,5518 Z"/>
 <path fill="rgb(204,102,255)" stroke="none" d="M 18325,6015 L 18219,6015 18219,5804 18430,5804 18430,6015 18325,6015 Z"/>
 <path fill="rgb(255,102,204)" stroke="none" d="M 18325,6513 L 18219,6513 18219,6302 18430,6302 18430,6513 18325,6513 Z"/>
 <path fill="rgb(131,202,255)" stroke="none" d="M 18325,7011 L 18219,7011 18219,6800 18430,6800 18430,7011 18325,7011 Z"/>
 <text class="TextShape"><tspan class="TextParagraph" font-family="Liberation Sans, sans-serif" font-size="353px" font-weight="400"><tspan class="TextPosition" x="18530" y="4536"><tspan fill="rgb(0,0,0)" stroke="none">HENRY BOLINGBROKE</tspan></tspan></tspan></text>
 <text class="TextShape"><tspan class="TextParagraph" font-family="Liberation Sans, sans-serif" font-size="353px" font-weight="400"><tspan class="TextPosition" x="18530" y="5034"><tspan fill="rgb(0,0,0)" stroke="none">DUCHESS OF YORK</tspan></tspan></tspan></text>
 <text class="TextShape"><tspan class="TextParagraph" font-family="Liberation Sans, sans-serif" font-size="353px" font-weight="400"><tspan class="TextPosition" x="18530" y="5532"><tspan fill="rgb(0,0,0)" stroke="none">KING RICHARD II</tspan></tspan></tspan></text>
 <text class="TextShape"><tspan class="TextParagraph" font-family="Liberation Sans, sans-serif" font-size="353px" font-weight="400"><tspan class="TextPosition" x="18530" y="6029"><tspan fill="rgb(0,0,0)" stroke="none">DUKE OF YORK</tspan></tspan></tspan></text>
 <text class="TextShape"><tspan class="TextParagraph" font-family="Liberation Sans, sans-serif" font-size="353px" font-weight="400"><tspan class="TextPosition" x="18530" y="6527"><tspan fill="rgb(0,0,0)" stroke="none">GREEN</tspan></tspan></tspan></text>
 <text class="TextShape"><tspan class="TextParagraph" font-family="Liberation Sans, sans-serif" font-size="353px" font-weight="400"><tspan class="TextPosition" x="18530" y="7025"><tspan fill="rgb(0,0,0)" stroke="none">QUEEN</tspan></tspan></tspan></text>
 <text class="TextShape"><tspan class="TextParagraph" font-family="Liberation Sans, sans-serif" font-size="318px" font-weight="400"><tspan class="TextPosition" x="9186" y="10729"><tspan fill="rgb(0,0,0)" stroke="none">Word</tspan></tspan></tspan></text>
 <text class="TextShape" transform="translate(837,6628) rotate(-90) translate(-837,-6628)"><tspan class="TextParagraph" font-family="Liberation Sans, sans-serif" font-size="318px" font-weight="400"><tspan class="TextPosition" x="837" y="6628"><tspan fill="rgb(0,0,0)" stroke="none">Significance</tspan></tspan></tspan></text>
</svg>